<svg xmlns="http://www.w3.org/2000/svg" xml:space="preserve" viewBox="0 0 64 64">
  <path fill="currentColor" d="M48.6 11.5C45.5 5.7 39.5 2 32.9 2c-8.1 0-15.1 5.6-17.2 13.3-.5-.1-1-.1-1.4-.1C7.5 15.2 2 20.8 2 27.6 2 34.4 7.5 40 14.3 40h33.6C55.7 40 62 33.6 62 25.7c0-7.6-5.9-13.8-13.4-14.2zM48 36H14.3C9.7 36 6 32.2 6 27.6c0-4.6 3.7-8.4 8.3-8.4.8 0 1.6.1 2.4.4l2.2.7.3-2.3c1-6.8 6.9-12 13.7-12 5.4 0 10.4 3.3 12.6 8.3l.6 1.2 1.6-.1h.1c5.6 0 10.1 4.6 10.1 10.3C58 31.4 53.5 36 48 36zm-30 8a2 2 0 0 0-2 2c-1.1 0-2 .9-2 2s.9 2 2 2c0 1.1.9 2 2 2s2-.9 2-2c1.1 0 2-.9 2-2s-.9-2-2-2a2 2 0 0 0-2-2zm14 0a2 2 0 0 0-2 2c-1.1 0-2 .9-2 2s.9 2 2 2c0 1.1.9 2 2 2a2 2 0 0 0 2-2 2 2 0 0 0 2-2 2 2 0 0 0-2-2 2 2 0 0 0-2-2zm-6.6 10a2 2 0 0 0-2 2c-1.1 0-2 .9-2 2s.9 2 2 2c0 1.1.9 2 2 2a2 2 0 0 0 2-2c1.1 0 2-.9 2-2s-.9-2-2-2a2 2 0 0 0-2-2zm15.2 2a2 2 0 0 0-2-2 2 2 0 0 0-2 2c-1.1 0-2 .9-2 2s.9 2 2 2c0 1.1.9 2 2 2a2 2 0 0 0 2-2c1.1 0 2-.9 2-2s-.9-2-2-2zm3.4-6c0 1.1.9 2 2 2s2-.9 2-2a2 2 0 0 0 2-2 2 2 0 0 0-2-2 2 2 0 0 0-2-2 2 2 0 0 0-2 2c-1.1 0-2 .9-2 2s.9 2 2 2z" class="st0"/>
</svg>
