<svg xmlns="http://www.w3.org/2000/svg" xml:space="preserve" viewBox="0 0 64 64">
  <path fill="currentColor" d="M50.1 27c-3-6.1-9.2-10-16.1-10-2.4 0-4.7.5-6.8 1.4C25.3 12.9 20 9 14 9 6.3 9 0 15.3 0 23c0 5.6 3.4 10.6 8.4 12.8C6.9 37.8 6 40.3 6 43c0 6.6 5.4 12 12 12h34.1v-.2A14 14 0 0 0 64 41c0-7.7-6.2-13.9-13.9-14zM4 23c0-5.5 4.5-10 10-10 4.5 0 8.4 3.1 9.6 7.3-3.6 2.5-6.2 6.3-7.2 10.8-1.7.2-3.3.8-4.6 1.6-4.5-1-7.8-5-7.8-9.7zm46.1 28H18a8 8 0 0 1-.1-16l2 .1.2-1.9C21 26.3 27 21 34 21c5.7 0 10.8 3.5 13 8.8l.6 1.4L49 31h1a10 10 0 0 1 .1 20z"/>
</svg>
