<svg xmlns="http://www.w3.org/2000/svg" xml:space="preserve" id="Layer_2" x="0" y="0" version="1.1" viewBox="0 0 64 64">
  <path fill="currentColor" d="M.1 32.8C0 33.9.8 34.9 1.9 35H2c1 0 1.9-.8 2-1.8.4-4.7 4.3-8.2 9-8.2.9 0 1.8.1 2.6.4l2.2.7.3-2.3C19.3 16.5 25.6 11 33 11c5.9 0 11.3 3.5 13.7 8.9l.6 1.2 1.6-.1h.2c6.1 0 11 4.9 11 11 0 1.1.9 2 2 2s2-.9 2-2c0-8-6.3-14.6-14.3-15C46.5 10.9 40 7 33 7c-8.6 0-16.2 5.9-18.3 14.1-.6-.1-1.1-.1-1.7-.1C6.2 21 .7 26.1.1 32.8zM2 41h60c1.1 0 2-.9 2-2s-.9-2-2-2H2c-1.1 0-2 .9-2 2s.9 2 2 2zM60 47a2 2 0 0 0-2-2H8c-1.1 0-2 .9-2 2s.9 2 2 2h50a2 2 0 0 0 2-2zM12 53c-1.1 0-2 .9-2 2s.9 2 2 2h16c1.1 0 2-.9 2-2s-.9-2-2-2H12zM36 53c-1.1 0-2 .9-2 2s.9 2 2 2h20c1.1 0 2-.9 2-2s-.9-2-2-2H36z" class="st0"/>
</svg>
