<svg xmlns="http://www.w3.org/2000/svg" xml:space="preserve" id="Layer_2" x="0" y="0" version="1.1" viewBox="0 0 64 64">
  <path fill="currentColor" d="M49.7 10a18.92 18.92 0 0 0-35 4.1c-.6-.1-1.1-.1-1.7-.1-7.2 0-13 5.8-13 13s5.8 13 13 13h36c8.3 0 15-6.7 15-15 0-8-6.3-14.6-14.3-15zM49 36H13c-5 0-9-4-9-9s4-9 9-9c.9 0 1.8.1 2.6.4l2.2.7.3-2.3C19.3 9.5 25.6 4 33 4c5.9 0 11.3 3.5 13.7 8.9l.6 1.2 1.6-.1h.2c6.1 0 11 4.9 11 11-.1 6.1-5 11-11.1 11zM44 44a2 2 0 0 0-2 2v16.6c0 .1 0 .1.1.2 0 .1.1.1.1.2s.1.1.1.2.1.1.1.1c0 .1.1.1.1.2l.1.1.1.1c.1 0 .1.1.2.1 0 0 .1 0 .1.1.1 0 .2.1.3.1h.5c.2 0 .3 0 .5-.1h.1c.1 0 .3-.1.4-.2h.1c.1-.1.3-.2.4-.3l.1-.1c.1-.1.2-.3.3-.4 1.4-3.1 4.6-5 8-4.7 1.1.1 2.1-.7 2.2-1.8.1-1.1-.7-2.1-1.8-2.2-3-.2-5.8.6-8.1 2.3V46a2 2 0 0 0-2-2zM38 52v-6c0-1.1-.9-2-2-2s-2 .9-2 2v6c0 1.1.9 2 2 2s2-.9 2-2zM30 56V46c0-1.1-.9-2-2-2s-2 .9-2 2v10c0 1.1.9 2 2 2s2-.9 2-2zM20 44a2 2 0 0 0-2 2v10.4c-2.3-1.7-5.2-2.6-8.1-2.3-1.1.1-1.9 1.1-1.8 2.2.1 1.1 1.1 1.9 2.2 1.8 3.4-.3 6.6 1.6 8 4.7.1.1.2.3.3.4l.1.1c.1.1.2.2.4.3h.1c.1.1.3.1.4.2h.1c.2 0 .3.1.5.1h.5c.1 0 .2-.1.3-.1 0 0 .1 0 .1-.1.1 0 .1-.1.2-.1s.1-.1.1-.1l.1-.1s.1-.1.1-.2l.1-.1c0-.1.1-.1.1-.2s.1-.1.1-.2 0-.1.1-.2c0-.1 0-.1.1-.2V46c-.1-1.1-1-2-2.1-2zM26.6 63.4c.4.4.9.6 1.4.6.5 0 1.1-.2 1.4-.6.4-.4.6-.9.6-1.4 0-.5-.2-1-.6-1.4-.7-.7-2.1-.7-2.8 0-.4.4-.6.9-.6 1.4 0 .5.2 1 .6 1.4zM34.6 59.4c.4.4.9.6 1.4.6.5 0 1-.2 1.4-.6.4-.4.6-.9.6-1.4s-.2-1-.6-1.4c-.7-.7-2.1-.7-2.8 0-.4.4-.6.9-.6 1.4s.2 1 .6 1.4zM61.4 57.4c.4-.4.6-.9.6-1.4s-.2-1-.6-1.4c-.8-.8-2.1-.8-2.8 0-.4.4-.6.9-.6 1.4s.2 1 .6 1.4c.4.4.9.6 1.4.6.5 0 1-.2 1.4-.6z" class="st0"/>
</svg>
