<svg xmlns="http://www.w3.org/2000/svg" xml:space="preserve" id="Layer_2" x="0" y="0" version="1.1" viewBox="0 0 64 64">
  <path fill="currentColor" d="M2 34h60c1.1 0 2-.9 2-2s-.9-2-2-2H2c-1.1 0-2 .9-2 2s.9 2 2 2zM4 24c0 1.1.9 2 2 2h48c1.1 0 2-.9 2-2s-.9-2-2-2H6a2 2 0 0 0-2 2zM8 48c0 1.1.9 2 2 2h48c1.1 0 2-.9 2-2s-.9-2-2-2H10a2 2 0 0 0-2 2zM4 18h22c1.1 0 2-.9 2-2s-.9-2-2-2H4c-1.1 0-2 .9-2 2s.9 2 2 2zM46 18c1.1 0 2-.9 2-2s-.9-2-2-2H34c-1.1 0-2 .9-2 2s.9 2 2 2h12zM56 16c0 1.1.9 2 2 2h4c1.1 0 2-.9 2-2s-.9-2-2-2h-4a2 2 0 0 0-2 2zM54 42c1.1 0 2-.9 2-2s-.9-2-2-2H32c-1.1 0-2 .9-2 2s.9 2 2 2h22zM12 42h12c1.1 0 2-.9 2-2s-.9-2-2-2H12c-1.1 0-2 .9-2 2s.9 2 2 2z" class="st0"/>
</svg>
