<svg xmlns="http://www.w3.org/2000/svg" xml:space="preserve" viewBox="0 0 64 64">
  <path fill="currentColor" d="M64 27c0-6.2-4.7-11.3-10.7-11.9C50.7 10.1 45.7 7 40 7c-7.3 0-13.5 5.2-14.7 12.2C18 20.3 12 25.8 10.4 33.1 4.6 33.9 0 38.9 0 45c0 6.6 5.4 12 12 12h34.1v-.2A14 14 0 0 0 58 43c0-1.8-.4-3.5-1-5.1 4.2-1.9 7-6.1 7-10.9zM44.1 53H12a8 8 0 0 1-.1-16l2 .1.2-1.8C15 28.3 21 23 28 23c5.7 0 10.8 3.5 13 8.8l.6 1.4L43 33h1a10 10 0 0 1 .1 20zM55 34.4c-2.5-3.3-6.5-5.4-10.9-5.4-2.8-5.7-8.4-9.5-14.7-9.9C30.6 14.3 34.9 11 40 11c4.5 0 8.4 2.7 10.2 6.8l.5 1.2H52c4.4 0 8 3.6 8 8 0 3.3-2 6.2-5 7.4z"/>
</svg>
