<svg xmlns="http://www.w3.org/2000/svg" xml:space="preserve" id="Layer_2" x="0" y="0" version="1.1" viewBox="0 0 64 64">
  <path fill="currentColor" d="M49.7 10a18.92 18.92 0 0 0-35 4.1c-.6-.1-1.1-.1-1.7-.1-7.2 0-13 5.8-13 13s5.8 13 13 13h36c8.3 0 15-6.7 15-15 0-8-6.3-14.6-14.3-15zm-.6 26H13c-5 0-9-4-9-9s4-9 9-9c.9 0 1.8.1 2.6.4l2.2.7.3-2.3C19.3 9.5 25.6 4 33 4c5.9 0 11.3 3.5 13.7 8.9l.6 1.2 1.6-.1h.2c6.1 0 11 4.9 11 11-.1 6.1-5 11-11 11zM48 62V46c0-1.1-.9-2-2-2s-2 .9-2 2v16c0 1.1.9 2 2 2s2-.9 2-2zM38 56V46c0-1.1-.9-2-2-2s-2 .9-2 2v10c0 1.1.9 2 2 2s2-.9 2-2zM28 62V46c0-1.1-.9-2-2-2s-2 .9-2 2v16c0 1.1.9 2 2 2s2-.9 2-2zM16 58a2 2 0 0 0 2-2V46c0-1.1-.9-2-2-2s-2 .9-2 2v10c0 1.1.9 2 2 2z" class="st0"/>
</svg>
