<svg xmlns="http://www.w3.org/2000/svg" xml:space="preserve" id="Layer_2" x="0" y="0" version="1.1" viewBox="0 0 64 64">
  <path fill="currentColor" d="M2 25.6C2 32.4 7.5 38 14.3 38h33.6C55.7 38 62 31.6 62 23.7c0-7.6-5.9-13.8-13.3-14.2C45.5 3.7 39.5 0 32.9 0c-8.1 0-15.1 5.6-17.2 13.3-.5-.1-1-.1-1.4-.1C7.5 13.2 2 18.8 2 25.6zm12.3-8.4c.8 0 1.6.1 2.4.4l2.2.7.3-2.3c1-6.8 6.9-12 13.7-12 5.4 0 10.4 3.3 12.6 8.3l.5 1.2 1.7-.1c5.6 0 10.1 4.6 10.1 10.3C58 29.4 53.5 34 48 34H14.3C9.7 34 6 30.2 6 25.6s3.7-8.4 8.3-8.4zM17 42c-1.7 0-3 1.3-3 3s1.3 3 3 3 3-1.3 3-3-1.3-3-3-3zM33 48c1.7 0 3-1.3 3-3s-1.3-3-3-3-3 1.3-3 3 1.3 3 3 3zM28 53c0-1.7-1.3-3-3-3s-3 1.3-3 3 1.3 3 3 3 3-1.3 3-3zM41 56c1.7 0 3-1.3 3-3s-1.3-3-3-3-3 1.3-3 3 1.3 3 3 3zM49 42c-1.7 0-3 1.3-3 3s1.3 3 3 3 3-1.3 3-3-1.3-3-3-3zM17 58c-1.7 0-3 1.3-3 3s1.3 3 3 3 3-1.3 3-3-1.3-3-3-3zM33 64c1.7 0 3-1.3 3-3s-1.3-3-3-3-3 1.3-3 3a3 3 0 0 0 3 3zM49 58c-1.7 0-3 1.3-3 3s1.3 3 3 3 3-1.3 3-3-1.3-3-3-3z" class="st0"/>
</svg>
