<svg xmlns="http://www.w3.org/2000/svg" xml:space="preserve" id="Layer_2" x="0" y="0" version="1.1" viewBox="0 0 64 64">
  <path fill="currentColor" d="M32 48c8.8 0 16-7.2 16-16s-7.2-16-16-16-16 7.2-16 16 7.2 16 16 16zm0-28c6.6 0 12 5.4 12 12s-5.4 12-12 12-12-5.4-12-12 5.4-12 12-12zM32 12a2 2 0 0 0 2-2V2c0-1.1-.9-2-2-2s-2 .9-2 2v8c0 1.1.9 2 2 2zM34 62v-8c0-1.1-.9-2-2-2s-2 .9-2 2v8c0 1.1.9 2 2 2s2-.9 2-2zM62 30h-8c-1.1 0-2 .9-2 2s.9 2 2 2h8c1.1 0 2-.9 2-2s-.9-2-2-2zM2 34h8c1.1 0 2-.9 2-2s-.9-2-2-2H2c-1.1 0-2 .9-2 2s.9 2 2 2zM15 17.9c.4.4.9.6 1.4.6.5 0 1-.2 1.4-.6.8-.8.8-2 0-2.8l-5.7-5.7c-.8-.8-2-.8-2.8 0-.8.8-.8 2 0 2.8l5.7 5.7zM49 46.1c-.8-.8-2-.8-2.8 0-.8.8-.8 2 0 2.8l5.7 5.7c.4.4.9.6 1.4.6s1-.2 1.4-.6c.8-.8.8-2 0-2.8L49 46.1zM47.6 18.4c.5 0 1-.2 1.4-.6l5.7-5.7c.8-.8.8-2 0-2.8-.8-.8-2-.8-2.8 0L46.1 15c-.8.8-.8 2 0 2.8.4.4.9.6 1.5.6zM15 46.1l-5.7 5.7c-.8.8-.8 2 0 2.8.4.4.9.6 1.4.6s1-.2 1.4-.6l5.7-5.7c.8-.8.8-2 0-2.8-.7-.7-2-.7-2.8 0z" class="st0"/>
</svg>
