<svg xmlns="http://www.w3.org/2000/svg" xml:space="preserve" id="Layer_2" x="0" y="0" version="1.1" viewBox="0 0 64 64">
  <path fill="currentColor" d="M18.8 45.8c.4 1 1.5 1.6 2.6 1.2 1-.4 1.6-1.5 1.2-2.6A10.03 10.03 0 0 1 32 31a10.03 10.03 0 0 1 9.4 13.4c-.4 1 .2 2.2 1.2 2.6.2.1.5.1.7.1.8 0 1.6-.5 1.9-1.3.6-1.5.8-3.1.8-4.8 0-7.7-6.3-14-14-14s-14 6.3-14 14c0 1.6.3 3.3.8 4.8zM32 23a2 2 0 0 0 2-2v-8c0-1.1-.9-2-2-2s-2 .9-2 2v8c0 1.1.9 2 2 2zM50 41c0 1.1.9 2 2 2h8c1.1 0 2-.9 2-2s-.9-2-2-2h-8a2 2 0 0 0-2 2zM4 43h8c1.1 0 2-.9 2-2s-.9-2-2-2H4c-1.1 0-2 .9-2 2s.9 2 2 2zM62 49H2c-1.1 0-2 .9-2 2s.9 2 2 2h60c1.1 0 2-.9 2-2s-.9-2-2-2zM17 28.8c.4.4.9.6 1.4.6.5 0 1-.2 1.4-.6.8-.8.8-2 0-2.8l-5.7-5.7c-.8-.8-2-.8-2.8 0-.8.8-.8 2 0 2.8l5.7 5.7zM45.6 29.4c.5 0 1-.2 1.4-.6l5.7-5.7c.8-.8.8-2 0-2.8-.8-.8-2-.8-2.8 0L44.1 26c-.8.8-.8 2 0 2.8.4.4.9.6 1.5.6z" class="st0"/>
</svg>