<svg xmlns="http://www.w3.org/2000/svg" xml:space="preserve" id="Layer_2" x="0" y="0" version="1.1" viewBox="0 0 64 64">
  <path fill="currentColor" d="M32 28a2 2 0 0 0 2-2v-8c0-1.1-.9-2-2-2s-2 .9-2 2v8c0 1.1.9 2 2 2zM8 48h48c1.1 0 2-.9 2-2s-.9-2-2-2H45.9c-1-6.8-6.8-12-13.8-12s-12.9 5.2-13.8 12H8c-1.1 0-2 .9-2 2s.9 2 2 2zm24-12c4.8 0 8.9 3.4 9.8 8H22.2c.9-4.6 5-8 9.8-8zM17 33.8c.4.4.9.6 1.4.6s1-.2 1.4-.6c.8-.8.8-2 0-2.8l-5.7-5.7c-.8-.8-2-.8-2.8 0-.8.8-.8 2 0 2.8l5.7 5.7zM45.6 34.4c.5 0 1-.2 1.4-.6l5.7-5.7c.8-.8.8-2 0-2.8s-2-.8-2.8 0L44.1 31c-.8.8-.8 2 0 2.8.4.4.9.6 1.5.6z" class="st0"/>
</svg>
