<svg xmlns="http://www.w3.org/2000/svg" xml:space="preserve" id="Layer_2" x="0" y="0" version="1.1" viewBox="0 0 64 64">
  <path fill="currentColor" d="M13 42h9c1.1 0 2-.9 2-2s-.9-2-2-2h-9c-5 0-9-4-9-9s4-9 9-9c.9 0 1.8.1 2.6.4l2.2.7.3-2.3C19.3 11.5 25.6 6 33 6c5.9 0 11.3 3.5 13.7 8.9l.6 1.2 1.6-.1h.2c6.1 0 11 4.9 11 11s-4.9 11-10.9 11H42c-1.1 0-2 .9-2 2s.9 2 2 2h7c8.3 0 15-6.7 15-15 0-8-6.3-14.6-14.3-15C46.5 5.9 40 2 33 2c-8.6 0-16.2 6-18.3 14.1-.6 0-1.1-.1-1.7-.1-7.2 0-13 5.9-13 13s5.8 13 13 13z" class="st0"/>
  <path fill="currentColor" d="M37.2 34c-.9-.7-2.1-.6-2.8.3L21.8 50h8l-7 8.7c-.7.9-.6 2.1.3 2.8.4.3.8.4 1.2.4.6 0 1.2-.3 1.6-.8L38.2 46h-8l7.4-9.2c.7-.9.5-2.1-.4-2.8z" class="st0"/>
</svg>
